<svg width="112" height="83" viewBox="0 0 112 83" fill="none" xmlns="http://www.w3.org/2000/svg">
<path d="M58.9385 33.2487C58.9385 34.4615 57.9463 35.4537 56.7335 35.4537C55.5207 35.4537 54.5285 34.4615 54.5285 33.2487C54.5285 32.0359 55.4656 31.0437 56.7335 31.0437C58.0014 31.0712 58.9385 32.0635 58.9385 33.2487ZM49.8979 37.6588C49.8979 37.8517 49.8979 38.21 49.8979 38.21C49.8979 38.21 48.8505 36.8594 46.6179 36.8594C42.952 36.8594 40.0579 39.6709 40.0579 43.5297C40.0579 47.3885 42.8969 50.1999 46.6179 50.1999C48.8781 50.1999 49.8979 48.8218 49.8979 48.8218V49.4006C49.8979 49.6762 50.0908 49.8691 50.3665 49.8691H53.0952V37.1902C53.0952 37.1902 50.587 37.1902 50.3665 37.1902C50.0908 37.1902 49.8979 37.4383 49.8979 37.6588ZM49.8979 45.7898C49.4018 46.534 48.3819 47.168 47.1692 47.168C45.0193 47.168 43.3655 45.8174 43.3655 43.5297C43.3655 41.242 45.0193 39.8914 47.1692 39.8914C48.3544 39.8914 49.4293 40.5529 49.8979 41.2695V45.7898ZM55.1349 37.1902H58.3873V49.8691H55.1349V37.1902ZM103.508 36.8594C101.275 36.8594 100.228 38.21 100.228 38.21V31.0988H96.9754V49.8967C96.9754 49.8967 99.4836 49.8967 99.7041 49.8967C99.9797 49.8967 100.173 49.6486 100.173 49.4281V48.8493C100.173 48.8493 101.22 50.2275 103.453 50.2275C107.119 50.2275 110.013 47.3885 110.013 43.5572C110.04 39.6984 107.146 36.8594 103.508 36.8594ZM102.984 47.1404C101.744 47.1404 100.752 46.5065 100.255 45.7623V41.242C100.752 40.5804 101.854 39.8638 102.984 39.8638C105.134 39.8638 106.788 41.2144 106.788 43.5021C106.788 45.7898 105.134 47.1404 102.984 47.1404ZM95.3216 42.3445V49.8967H92.0692V42.7304C92.0692 40.6356 91.4077 39.7811 89.561 39.7811C88.5687 39.7811 87.5764 40.2773 86.9425 41.0215V49.8691H83.6901V37.1902H86.2534C86.529 37.1902 86.722 37.4383 86.722 37.6588V38.21C87.6591 37.2178 88.927 36.8594 90.1673 36.8594C91.573 36.8594 92.7582 37.2729 93.723 38.0722C94.8806 39.0094 95.3216 40.2221 95.3216 42.3445ZM75.8346 36.8594C73.602 36.8594 72.5546 38.21 72.5546 38.21V31.0988H69.3022V49.8967C69.3022 49.8967 71.8104 49.8967 72.0309 49.8967C72.3066 49.8967 72.4995 49.6486 72.4995 49.4281V48.8493C72.4995 48.8493 73.5469 50.2275 75.7795 50.2275C79.4454 50.2275 82.3395 47.3885 82.3395 43.5572C82.3946 39.6984 79.528 36.8594 75.8346 36.8594ZM75.3109 47.1404C74.0706 47.1404 73.0783 46.5065 72.5822 45.7623V41.242C73.0783 40.5804 74.1808 39.8638 75.3109 39.8638C77.4608 39.8638 79.1146 41.2144 79.1146 43.5021C79.1146 45.7898 77.4608 47.1404 75.3109 47.1404ZM66.5184 36.8594C67.5106 36.8594 68.0067 37.0248 68.0067 37.0248V40.0292C68.0067 40.0292 65.3056 39.1196 63.6242 41.049V49.9243H60.3718V37.1902C60.3718 37.1902 62.88 37.1902 63.1005 37.1902C63.3762 37.1902 63.5691 37.4383 63.5691 37.6588V38.21C64.2031 37.4934 65.5261 36.8594 66.5184 36.8594ZM32.8916 48.7391C32.7262 48.3256 32.5608 47.8846 32.3954 47.5263C32.1198 46.9199 31.8442 46.3411 31.6237 45.8174L31.5961 45.7898C29.2808 40.7183 26.7726 35.5916 24.1266 30.5475L24.0163 30.3546C23.7407 29.8585 23.4651 29.3072 23.217 28.756C22.8862 28.1496 22.5555 27.5156 22.0042 26.9092C20.9293 25.5587 19.3857 24.8145 17.732 24.8145C16.0506 24.8145 14.5347 25.5587 13.4046 26.8265C12.9085 27.4329 12.5226 28.0669 12.1918 28.6733C11.9162 29.2245 11.6406 29.7482 11.3925 30.2719L11.2822 30.4649C8.69133 35.5364 6.15554 40.6631 3.81269 45.7071L3.78513 45.7623C3.53706 46.3135 3.28899 46.8648 3.01336 47.4712C2.84799 47.8295 2.68261 48.2429 2.51723 48.6839C2.07622 49.9243 1.93841 51.1095 2.10379 52.3222C2.46211 54.858 4.17101 56.9804 6.48629 57.9175C7.36831 58.2758 8.27788 58.4688 9.21502 58.4688C9.49065 58.4688 9.82141 58.4412 10.097 58.4137C11.1996 58.2758 12.3572 57.9175 13.4597 57.256C14.8379 56.4842 16.1609 55.3542 17.6493 53.7555C19.1377 55.3817 20.4883 56.4842 21.8388 57.256C22.9414 57.89 24.099 58.2758 25.2015 58.4137C25.4771 58.4412 25.8079 58.4688 26.0835 58.4688C27.0207 58.4688 27.9854 58.3034 28.8123 57.9175C31.1827 56.9804 32.8364 54.8029 33.1948 52.3222C33.4704 51.1646 33.3326 49.9794 32.8916 48.7391ZM17.6768 50.4755C15.8577 48.1878 14.6725 46.0103 14.259 44.1912C14.0937 43.4194 14.0661 42.7304 14.1488 42.124C14.2039 41.5727 14.4244 41.1041 14.7 40.7183C15.334 39.8087 16.4089 39.2299 17.6768 39.2299C18.9447 39.2299 20.0473 39.7811 20.6536 40.7183C20.9293 41.1317 21.1222 41.6003 21.2049 42.124C21.3151 42.7304 21.26 43.447 21.0946 44.1912C20.6812 46.0103 19.496 48.1602 17.6768 50.4755ZM31.1275 52.0742C30.8795 53.8382 29.7218 55.3542 28.0681 56.0157C27.2687 56.3464 26.3867 56.4567 25.5047 56.3464C24.6503 56.2362 23.8234 55.9881 22.9414 55.4644C21.7286 54.8029 20.5158 53.7555 19.0826 52.1844C21.3151 49.4557 22.6657 46.9475 23.1619 44.7149C23.4099 43.6675 23.4375 42.7304 23.3272 41.8483C23.1894 40.9939 22.8862 40.2221 22.4177 39.5606C21.3703 38.0447 19.6062 37.1626 17.6493 37.1626C15.6923 37.1626 13.9283 38.0722 12.8809 39.5606C12.4123 40.2221 12.1091 41.0215 11.9713 41.8483C11.8335 42.7304 11.8611 43.6951 12.1367 44.7149C12.6328 46.9475 14.0385 49.4833 16.216 52.212C14.8379 53.7555 13.5975 54.8029 12.3572 55.492C11.4752 55.9881 10.6483 56.2637 9.79384 56.374C8.88427 56.4842 8.00225 56.3464 7.23049 56.0432C5.57672 55.3817 4.39151 53.8382 4.17101 52.1017C4.06075 51.2473 4.14344 50.4204 4.4742 49.4833C4.58445 49.1525 4.74983 48.8218 4.91521 48.4083C5.16327 47.8571 5.41134 47.3058 5.68697 46.727L5.71453 46.6719C8.02982 41.6554 10.538 36.5011 13.129 31.5122L13.2392 31.3193C13.5148 30.8232 13.7905 30.2719 14.0385 29.7758C14.3142 29.2245 14.6174 28.7284 14.9757 28.2874C15.6923 27.4881 16.6294 27.047 17.6768 27.047C18.7242 27.047 19.6614 27.4881 20.378 28.2874C20.7363 28.7284 21.0395 29.2245 21.3151 29.7758C21.5908 30.2719 21.8664 30.8232 22.1145 31.3193L22.2247 31.5122C24.7881 36.5287 27.2963 41.683 29.6116 46.6994V46.727C29.8872 47.2782 30.1077 47.8846 30.3833 48.4083C30.5487 48.8218 30.7141 49.1525 30.8244 49.4833C31.1551 50.3377 31.2654 51.1922 31.1275 52.0742Z" fill="white"/>
</svg>
