<svg width="169" height="100" viewBox="0 0 169 100" fill="none" xmlns="http://www.w3.org/2000/svg">
<path d="M13.3 0L34.8 21.3L30.9 25.2L9.5 3.8L13.3 0ZM137.8 25.2L134 21.3L155.4 0L159.3 3.8L137.8 25.2ZM107.7 15.2L128.8 36.6L83.4 99.4L38.2 36.6L59.5 15.2H107.7ZM121.7 37.1L105.4 20.6L61.8 20.5L45.3 37.2L83.4 90.2L121.7 37.1ZM30.3 39.7H0V34.3H30.3V39.7ZM168.8 34.3V39.7H138.4V34.3H168.8ZM30.9 48.7L34.8 52.5L13.3 74L9.5 70.2L30.9 48.7ZM137.8 48.7L159.3 70.2L155.4 74L134 52.5L137.8 48.7Z" fill="black"/>
</svg>
