<svg width="131" height="132" viewBox="0 0 131 132" fill="none" xmlns="http://www.w3.org/2000/svg">
<path d="M49.9319 57.4723H52.5227V64.5986C52.443 67.6383 49.9319 70.0137 46.9425 69.9332C44.0527 69.8527 41.7409 67.5175 41.6612 64.5986V57.4723H44.252V64.5986C44.3118 66.1889 45.6272 67.4169 47.2016 67.3565C48.6963 67.2961 49.8721 66.0882 49.9319 64.5986V57.4723ZM62.5671 69.9332H65.1579V57.4723H62.5671V69.9332ZM7.68164 64.9408H12.9231V62.4849H7.68164V59.9484H13.1024V57.4723H5.09082V69.9332H13.2619V67.4571H7.68164V64.9408ZM29.883 69.6916C30.4609 70.3962 32.2147 70.7988 33.7891 70.5371L31.6567 72.7314C29.1655 72.7314 26.7142 70.7384 26.1362 69.8728C22.7482 68.9871 20.7154 65.5045 21.5724 62.0822C22.4493 58.66 25.8971 56.6067 29.2851 57.4723C32.6731 58.3379 34.7059 61.8407 33.8489 65.2629C33.3108 67.3162 31.836 68.9669 29.883 69.6916ZM31.4574 63.6927C31.4574 61.5991 29.7833 59.9081 27.7107 59.9081C25.638 59.9081 23.9639 61.5991 23.9639 63.6927C23.9639 65.7863 25.638 67.4773 27.7107 67.4773C29.7634 67.4571 31.4375 65.7863 31.4574 63.6927ZM119.924 63.431L124.288 57.4321H121.08L118.33 61.2166L115.579 57.4321H112.371L116.755 63.431L112.052 69.9332H115.26L118.369 65.6655L121.478 69.9332H124.667L119.924 63.431ZM102.545 61.277C103.861 62.8875 103.661 65.2629 102.067 66.5915C101.011 67.4773 99.576 67.6987 98.3204 67.2156L96.7659 69.3695C99.8749 70.98 103.701 69.752 105.296 66.6116C106.571 64.1154 106.093 61.0757 104.1 59.1029L102.545 61.277ZM83.2339 65.2226L77.3149 57.4522H74.8237V69.9131H77.4145V61.8809L83.5328 69.9131H85.8048V57.4723H83.214V65.2226H83.2339ZM95.9289 63.6927C95.9488 61.5991 97.6229 59.9283 99.6756 59.9081C100.154 59.9081 100.632 60.0088 101.071 60.19L102.625 58.036C99.5361 56.4054 95.7097 57.5931 94.0755 60.7335C92.7601 63.2498 93.2584 66.3499 95.2912 68.3228L96.8058 66.1688C96.2278 65.4843 95.909 64.5986 95.909 63.6927H95.9289Z" fill="white"/>
</svg>
