<svg width="151" height="27" viewBox="0 0 151 27" fill="none" xmlns="http://www.w3.org/2000/svg">
<path d="M16.4942 0.162842L17.3843 1.07918V7.28413H15.5778V1.07918L16.4942 0.162842ZM6.02168 2.7286L6.4144 1.52426L7.64491 1.94316L10.3154 7.54594L8.66598 8.3052L6.02168 2.7286ZM22.9347 7.54594L25.579 1.94316L26.7834 1.52426L27.2023 2.7286L24.5318 8.3052L22.9347 7.54594ZM33.1716 17.5995C32.4385 18.5595 31.7054 19.406 30.9724 20.1391C30.2393 20.8722 29.384 21.5878 28.4066 22.286C26.6437 23.5601 24.7587 24.5463 22.7515 25.2444C20.7617 25.9426 18.737 26.2917 16.6774 26.2917C14.5655 26.2917 12.4972 25.9426 10.4725 25.2444C8.4478 24.5637 6.53657 23.5688 4.7388 22.2598C2.88866 20.8984 1.30906 19.3449 0 17.5995C0.750528 16.6046 1.4836 15.7494 2.19922 15.0338C2.9323 14.3007 3.78755 13.5851 4.76498 12.8869C6.5453 11.6128 8.4478 10.6353 10.4725 9.95461C12.4972 9.2739 14.5655 8.93354 16.6774 8.93354C18.7545 8.93354 20.7792 9.2739 22.7515 9.95461C24.7412 10.6179 26.6263 11.5953 28.4066 12.8869C29.384 13.5851 30.248 14.3094 30.9985 15.0599C31.7491 15.8105 32.4734 16.657 33.1716 17.5995ZM13.1691 23.6997C14.3909 23.9441 15.5516 24.0663 16.6512 24.0663C17.7334 24.0663 18.8592 23.9441 20.0286 23.6997C21.0933 23.1063 21.9573 22.251 22.6206 21.134C23.2838 20.0169 23.6154 18.8388 23.6154 17.5995C23.6154 16.3254 23.2838 15.1385 22.6206 14.0389C21.9573 12.9218 21.0671 12.0578 19.9501 11.4469C18.9203 11.2375 17.8294 11.1328 16.6774 11.1328C15.4556 11.1328 14.2775 11.2549 13.143 11.4993C12.0434 12.0927 11.1706 12.9393 10.5248 14.0389C9.87904 15.1385 9.55614 16.3254 9.55614 17.5995C9.55614 18.8737 9.87904 20.0518 10.5248 21.134C11.1706 22.2336 12.0521 23.0888 13.1691 23.6997ZM30.344 17.5995C28.459 15.4876 26.2248 13.8905 23.6416 12.8084C24.2176 13.4716 24.654 14.2134 24.9507 15.0338C25.2649 15.8541 25.4219 16.7006 25.4219 17.5733C25.4219 18.446 25.2649 19.2926 24.9507 20.1129C24.654 20.9507 24.2176 21.7012 23.6416 22.3645C26.347 21.1776 28.5812 19.5893 30.344 17.5995ZM2.82757 17.5995C3.71773 18.6119 4.75625 19.5369 5.94313 20.3747C7.13002 21.2125 8.3169 21.8671 9.50378 22.3383C8.92779 21.6751 8.49144 20.9333 8.19472 20.1129C7.898 19.2926 7.74964 18.4548 7.74964 17.5995C7.74964 16.7443 7.898 15.9065 8.19472 15.0861C8.49144 14.2658 8.92779 13.5153 9.50378 12.8345C6.85075 13.9865 4.62535 15.5748 2.82757 17.5995ZM20.6046 17.5733C20.6046 18.289 20.4213 18.9522 20.0548 19.5631C19.7057 20.1915 19.217 20.6889 18.5887 21.0554C17.9778 21.422 17.3145 21.6052 16.5989 21.6052C15.8484 21.6052 15.1589 21.422 14.5306 21.0554C13.9197 20.6889 13.4397 20.1915 13.0906 19.5631C12.7415 18.9522 12.567 18.289 12.567 17.5733C12.567 16.8577 12.7502 16.1945 13.1168 15.5836C13.4833 14.9552 13.972 14.4578 14.5829 14.0912C15.1938 13.7247 15.8658 13.5414 16.5989 13.5414C17.332 13.5414 18.0039 13.7247 18.6148 14.0912C19.2257 14.4578 19.7057 14.9552 20.0548 15.5836C20.4213 16.1945 20.6046 16.8577 20.6046 17.5733ZM16.5989 19.7987C17.2098 19.7987 17.7247 19.5806 18.1436 19.1442C18.5799 18.7079 18.7981 18.1842 18.7981 17.5733C18.7981 16.9624 18.5799 16.4388 18.1436 16.0025C17.7072 15.5661 17.1923 15.3479 16.5989 15.3479C15.9705 15.3479 15.4382 15.5661 15.0018 16.0025C14.5829 16.4388 14.3735 16.9624 14.3735 17.5733C14.3735 18.1842 14.5829 18.7079 15.0018 19.1442C15.4382 19.5806 15.9705 19.7987 16.5989 19.7987Z" fill="#191515"/>
<path d="M53.0299 25.9662V12.9017H46.2612V16.7274H48.3439V17.2158C48.3439 20.2276 47.8232 22.0997 45.9408 22.0997C44.0584 22.0997 43.4977 20.2276 43.4977 17.2158V8.95385C43.4977 5.9828 43.9382 4.11063 45.8607 4.11063C47.7831 4.11063 48.1436 5.9828 48.1436 8.95385V10.3783H52.9898V9.80854C52.9898 3.66294 51.1474 0 45.8607 0C40.5339 0 38.3711 4.02923 38.3711 11.3144V14.9774C38.3711 22.2625 40.3336 26.2918 45.0597 26.2918C46.9821 26.2918 48.7444 25.3964 49.3051 23.5242L49.7056 25.9662H53.0299Z" fill="#191515"/>
<path d="M68.8229 25.9662C68.2221 24.7045 68.2622 23.28 68.0619 20.0241C67.9017 16.8495 67.1407 14.8553 64.4573 14.2448C67.0206 13.7971 68.7428 11.8028 68.7428 7.81427C68.7428 3.29664 66.4198 0.325592 60.9728 0.325592H54.5246V25.9662H59.4108V16.1983H60.4522C62.6149 16.1983 63.1356 17.5821 63.2958 20.2276C63.456 23.4428 63.5361 24.8673 63.8966 25.9662H68.8229ZM59.4108 12.2098V4.39553H60.292C62.9354 4.39553 63.8565 5.7793 63.8565 8.30266C63.8565 11.1516 62.9354 12.2098 60.292 12.2098H59.4108Z" fill="#191515"/>
<path d="M74.252 0.325592L68.8852 25.9662H73.451L74.4923 20.4311H79.4987L80.5401 25.9662H85.5064L80.1396 0.325592H74.252ZM76.9755 7.36658H77.1357L78.8179 16.5646H75.2133L76.9755 7.36658Z" fill="#191515"/>
<path d="M95.6009 16.7681C95.6009 20.3497 94.7198 21.9776 92.3568 21.9776H91.0751V4.31413H92.3568C94.7198 4.31413 95.6009 5.9421 95.6009 9.52364V16.7681ZM100.647 11.0295C100.647 4.02923 98.3244 0.325592 92.9575 0.325592H86.1088V25.9662H92.9575C98.3244 25.9662 100.647 22.2625 100.647 15.2622V11.0295Z" fill="#191515"/>
<path d="M101.901 0.325592V25.9662H106.867V0.325592H101.901Z" fill="#191515"/>
<path d="M113.188 8.95385C113.188 5.9828 113.589 4.11063 115.471 4.11063C117.394 4.11063 117.714 5.9828 117.714 8.95385V11.2737H122.56V10.2155C122.56 4.06993 120.838 0 115.592 0C110.145 0 108.062 4.02923 108.062 11.3144V14.9774C108.062 22.2625 110.145 26.2918 115.592 26.2918C120.838 26.2918 122.56 22.2218 122.56 16.0762V15.0181H117.714V17.3379C117.714 20.309 117.394 22.1811 115.471 22.1811C113.589 22.1811 113.188 20.309 113.188 17.3379V8.95385Z" fill="#191515"/>
<path d="M127.408 0.325592L122.041 25.9662H126.607L127.648 20.4311H132.654L133.696 25.9662H138.662L133.295 0.325592H127.408ZM130.131 7.36658H130.291L131.973 16.5646H128.369L130.131 7.36658Z" fill="#191515"/>
<path d="M139.264 0.325592V25.9662H150.999V21.8148H144.231V0.325592H139.264Z" fill="#191515"/>
</svg>
