<svg width="110" height="28" viewBox="0 0 110 28" fill="none" xmlns="http://www.w3.org/2000/svg">
<g clip-path="url(#clip0)">
<path d="M93.255 25.5352C94.773 25.6695 96.2903 25.8138 97.8039 25.9631L101.146 18.4285L104.323 26.6581C105.952 26.8446 107.582 27.0403 109.206 27.2447L103.637 12.8133L109.208 0.251972H104.489L104.44 0.313677L101.431 7.09959L98.7886 0.252967H94.1299L98.9393 12.7151L93.2554 25.5352H93.255ZM89.7318 25.2399V0.251972H85.0749V24.8893C86.6282 24.9987 88.1821 25.1162 89.7318 25.2396V25.2399ZM54.75 23.8426C56.0072 23.8426 57.2628 23.8512 58.5164 23.8605V14.6804H64.1106V10.771H58.5167V4.16594H64.9597V0.251972H53.8417V23.8459C54.1436 23.8459 54.447 23.8416 54.75 23.8426ZM40.2916 24.0815C41.843 24.031 43.3959 23.9886 44.9509 23.9541V4.1666H49.3037V0.252967H35.9388V4.1666H40.2923V24.0815H40.2916ZM4.67617 26.7162V11.829L10.1901 26.1151C11.8858 25.9412 13.584 25.7777 15.287 25.6231V0.252304H10.8187V15.673L4.86873 0.252304H0.208984V27.2513H0.236961C1.71318 27.0649 3.19449 26.8877 4.67617 26.7162ZM31.4484 4.16561V0.252304H20.3293V25.2001C24.0287 24.9085 27.7324 24.664 31.4393 24.4666V20.5497C29.2898 20.6638 27.1447 20.7952 25.0047 20.9415V14.682H30.5989V10.7704H25.0047V4.16561H31.4484ZM74.1887 20.3626V0.250977H69.5115V24.0957C73.2321 24.2205 76.9381 24.3943 80.6317 24.6132V20.694C78.4881 20.5676 76.3408 20.4578 74.1887 20.3622" fill="white"/>
</g>
<defs>
<clipPath id="clip0">
<rect width="109" height="27" fill="white" transform="translate(0.208984 0.251953)"/>
</clipPath>
</defs>
</svg>
