<svg width="140" height="53" viewBox="0 0 140 53" fill="none" xmlns="http://www.w3.org/2000/svg">
<g clip-path="url(#clip0)">
<path d="M17.0718 51.0972C13.0239 50.9305 9.71206 49.7818 7.12249 47.6484C6.62829 47.2408 5.45064 46.0188 5.05555 45.5034C4.00544 44.1341 3.29151 42.8014 2.81533 41.3228C1.35003 36.7713 2.10417 30.7987 4.97237 24.2439C7.42817 18.6321 11.2176 13.0664 17.8287 5.35786C18.8026 4.22358 21.7027 0.90625 21.7214 0.90625C21.7283 0.90625 21.5703 1.19019 21.3713 1.53593C19.6524 4.52187 18.1815 8.03901 17.3803 11.0839C16.0931 15.9696 16.2484 20.1625 17.8349 23.4137C18.9294 25.6535 20.8057 27.5936 22.9157 28.666C26.6094 30.5428 32.0173 30.6981 38.6215 29.1203C39.0762 29.011 61.6074 22.8084 88.6911 15.3364C115.775 7.86363 137.938 1.75446 137.941 1.75949C137.949 1.76596 75.0182 29.6918 42.3499 44.1794C37.1763 46.4731 35.7928 47.0525 33.3606 47.9381C27.1431 50.2023 21.5737 51.2827 17.0718 51.0972Z" fill="white"/>
</g>
<defs>
<clipPath id="clip0">
<rect width="138.628" height="51.7544" fill="white" transform="translate(0.624023 0.355469)"/>
</clipPath>
</defs>
</svg>
