<svg width="100" height="100" viewBox="0 0 100 100" fill="none" xmlns="http://www.w3.org/2000/svg">
<path d="M49.7 99.4C40.7 99.4 32.4 97.1667 24.8 92.7C17.2 88.2333 11.1667 82.2 6.7 74.6C2.23333 67 0 58.7 0 49.7C0 40.7 2.23333 32.4 6.7 24.8C11.1667 17.2 17.2 11.1667 24.8 6.7C32.4 2.23333 40.7 0 49.7 0C58.7 0 67 2.23333 74.6 6.7C82.2 11.1667 88.2333 17.2 92.7 24.8C97.1667 32.4 99.4 40.7 99.4 49.7C99.4 58.7 97.1667 67 92.7 74.6C88.2333 82.2 82.2 88.2333 74.6 92.7C67 97.1667 58.7 99.4 49.7 99.4ZM49.7 93.9C57.7 93.9 65.0667 91.9333 71.8 88C78.6 84.0667 83.9667 78.7333 87.9 72C91.8333 65.2 93.8 57.8 93.8 49.8C93.8 41.7333 91.8333 34.3333 87.9 27.6C83.9667 20.8667 78.6 15.5333 71.8 11.6C65.0667 7.6 57.7 5.6 49.7 5.6C41.7 5.6 34.3 7.6 27.5 11.6C20.7667 15.5333 15.4333 20.8667 11.5 27.6C7.56667 34.3333 5.6 41.7333 5.6 49.8C5.6 57.8 7.56667 65.2 11.5 72C15.4333 78.7333 20.7667 84.0667 27.5 88C34.3 91.9333 41.7 93.9 49.7 93.9ZM33.2 44.1C32.1333 44.1 31.2 43.7333 30.4 43C29.6667 42.2 29.3 41.2667 29.3 40.2C29.3 39.1333 29.6667 38.2333 30.4 37.5C31.2 36.7 32.1333 36.3 33.2 36.3C34.2667 36.3 35.1667 36.7 35.9 37.5C36.7 38.2333 37.1 39.1333 37.1 40.2C37.1 41.2667 36.7333 42.2 36 43C35.2667 43.7333 34.3333 44.1 33.2 44.1ZM66.4 44.1C65.3333 44.1 64.4 43.7333 63.6 43C62.8667 42.2 62.5 41.2667 62.5 40.2C62.5 39.1333 62.8667 38.2333 63.6 37.5C64.4 36.7 65.3333 36.3 66.4 36.3C67.4667 36.3 68.3667 36.7 69.1 37.5C69.9 38.2333 70.3 39.1333 70.3 40.2C70.3 41.2667 69.9333 42.2 69.2 43C68.4667 43.7333 67.5333 44.1 66.4 44.1ZM49.8 72.9C45.9333 72.9 42 71.9333 38 70C34 68 30.5333 65.3333 27.6 62L31 58.9C33.5333 61.7667 36.5 64.0667 39.9 65.8C43.3 67.4667 46.6 68.3 49.8 68.3C53.0667 68.3 56.3333 67.4667 59.6 65.8C62.9333 64.0667 65.8333 61.8 68.3 59L71.7 62.1C68.8333 65.3667 65.4333 68 61.5 70C57.5667 71.9333 53.6667 72.9 49.8 72.9Z" fill="black"/>
</svg>
