<svg width="117" height="54" viewBox="0 0 117 54" fill="none" xmlns="http://www.w3.org/2000/svg">
<path d="M8.28866 43.9949H6.63616L6.3214 40.3762H7.9739L8.28866 43.9949ZM108.121 43.9949H109.773L110.088 40.3762H108.435L108.121 43.9949ZM5.37711 40.403H3.72461L4.03937 44.0217H5.69187L5.37711 40.403ZM110.744 43.9949H112.396L112.711 40.3762H111.058L110.744 43.9949ZM16.6561 44.8795C16.7085 46.1393 15.738 47.1847 14.5052 47.2383C14.479 47.2383 14.4265 47.2383 14.4003 47.2383C13.1412 47.2383 12.1445 46.1929 12.1445 44.9063C12.1445 44.8795 12.1445 44.8527 12.1445 44.8527V44.8259C12.1445 43.5392 13.0363 42.467 14.3741 42.467C15.6331 42.467 16.6299 43.5124 16.6299 44.7991C16.6561 44.8259 16.6561 44.8259 16.6561 44.8795ZM9.65263 44.8795C9.65263 47.426 11.6724 49.4632 14.3741 49.4632C17.0758 49.4632 19.148 47.3992 19.148 44.8527V44.8259C19.148 42.2794 17.1282 40.2422 14.4265 40.2422C11.7248 40.2422 9.65263 42.3062 9.65263 44.8795ZM20.6693 49.2755H23.1087V46.1125H27.2793V44.0753H23.1087V42.5742H27.7252V40.4298H20.6693V49.2755ZM29.1417 49.2755H31.5811V46.1125H35.7517V44.0753H31.5811V42.5742H36.1976V40.4298H29.1417V49.2755ZM43.0699 49.2755H45.5093V42.5742H48.1585V40.4298H40.4206V42.5742H43.0699V49.2755ZM49.7586 49.2755H52.198V45.9249H55.3456V49.2755H57.785V40.4298H55.3456V43.7537H52.198V40.4298H49.7586V49.2755ZM59.4375 49.2755H66.5983V47.1847H61.8507V45.7909H66.0737V43.8609H61.8507V42.5206H66.5197V40.4298H59.4375V49.2755ZM73.287 49.3559H75.4117L77.1691 44.263L78.9528 49.3559H81.0774L84.0152 40.4298H81.4971L79.9495 45.5496L78.2445 40.403H76.1461L74.4412 45.5496L72.8936 40.4298H70.323L73.287 49.3559ZM86.9005 45.7909L87.8972 43.2712L88.8678 45.7909H86.9005ZM82.966 49.2755H85.5365L86.1661 47.694H89.576L90.2317 49.2755H92.8548L89.1038 40.3494H86.7431L82.966 49.2755ZM93.9826 49.2755H100.698V47.1311H96.4221V40.4298H93.9826V49.2755ZM102.062 49.2755H108.776V47.1311H104.501V40.4298H102.062V49.2755Z" fill="white"/>
<path d="M98.206 18.1549H93.4583C92.9862 16.9755 92.4878 16.0373 89.8385 16.0373C88.0024 16.0373 87.2155 16.8146 87.2155 17.592C87.2155 18.4498 87.8713 19.1467 89.891 19.6024L94.1927 20.7818C96.9994 21.5592 98.3633 23.8376 98.3633 26.2233C98.3633 27.5635 98.0748 29.1718 96.842 30.5121C95.9239 31.5039 94.5075 32.8173 89.8385 32.8173C83.4384 32.8173 81.3137 28.6893 81.3137 26.1696H86.2975C86.7958 27.9924 88.0024 28.6893 90.4418 28.6893C92.1206 28.6893 93.5632 28.0728 93.5632 26.7594C93.5632 25.4995 92.514 25.0438 91.1763 24.6686L87.7926 23.7304C86.1663 23.2211 84.8023 22.819 83.8318 21.988C81.3137 19.79 81.4973 15.8497 84.2253 13.8125C85.7466 12.6866 87.2942 12.0969 89.7861 12.0969C92.6976 12.0969 94.3501 12.9547 95.6616 13.8661C96.7895 14.6166 98.1797 16.6002 98.206 18.1549ZM18.1777 4.1626C18.2302 4.32343 28.0927 32.5761 28.0927 32.5761H33.9945L43.0702 9.06794H99.465L99.8847 4.1626H38.7422L31.2141 23.65L24.4467 4.1626H18.1777ZM66.9396 22.4169L74.3103 32.5761H78.9268V12.4722H73.6283V23.4087L66.9658 12.499H61.8772V32.5761H66.9658V22.4169H66.9396ZM100.068 31.5307C100.068 30.941 99.5962 30.4585 99.0191 30.4585C98.442 30.4585 97.9699 30.941 97.9699 31.5307C97.9699 32.1204 98.442 32.6029 99.0191 32.6029C99.5962 32.6029 100.095 32.1204 100.068 31.5307C100.095 31.5307 100.095 31.5307 100.068 31.5307ZM99.9634 31.5307C99.9634 32.04 99.5437 32.4689 99.0453 32.4689C98.547 32.4689 98.1273 32.04 98.1273 31.5307C98.1273 31.0214 98.547 30.5925 99.0453 30.5925C99.5437 30.5657 99.9634 30.9678 99.9634 31.5307C99.9634 31.5039 99.9634 31.5039 99.9634 31.5307ZM99.5175 31.2894C99.5175 31.075 99.3339 30.9142 99.1503 30.9142C99.124 30.9142 99.124 30.9142 99.0978 30.9142H98.5994V32.04H98.8355V31.6647H99.0191L99.2552 32.04H99.5437L99.2814 31.6379C99.4388 31.6111 99.5437 31.4503 99.5175 31.2894ZM99.2814 31.3162C99.2814 31.3967 99.2027 31.4771 99.124 31.4771H99.0978H98.8617V31.1554H99.0978C99.1765 31.1286 99.2814 31.1822 99.3076 31.2626C99.2814 31.2894 99.3076 31.2894 99.2814 31.3162ZM38.8733 32.5761H44.539L45.5883 29.4399H53.0639L54.1393 32.5761H59.7001L52.5655 12.499H46.5588L38.8733 32.5761ZM47.1621 25.7944L49.3654 19.1199L51.5163 25.7944H47.1621Z" fill="white"/>
</svg>
